<svg xmlns="http://www.w3.org/2000/svg" viewBox="0 0 512 512">
  <defs>
    <linearGradient id="bg" x1="0" y1="0" x2="1" y2="1">
      <stop offset="0%" stop-color="#161b22"/>
      <stop offset="100%" stop-color="#0d1117"/>
    </linearGradient>
  </defs>
  <rect width="512" height="512" rx="96" fill="url(#bg)"/>
  <g transform="translate(256,256) scale(12)" fill="#58a6ff">
    <path d="M-8-11h-1a4 4 0 0 0-4 4v5.2a3 3 0 0 1-.6 1.8l-.4.5.4.5a3 3 0 0 1 .6 1.8V7a4 4 0 0 0 4 4h1v-1.5H-9A2.5 2.5 0 0 1-11.5 7V2.8a4.5 4.5 0 0 0-.9-2.8 4.5 4.5 0 0 0 .9-2.8V-7A2.5 2.5 0 0 1-9-9.5h1z"/>
    <path d="M8-11h1a4 4 0 0 1 4 4v5.2a3 3 0 0 0 .6 1.8l.4.5-.4.5a3 3 0 0 0-.6 1.8V7a4 4 0 0 1-4 4h-1v-1.5h1A2.5 2.5 0 0 0 11.5 7V2.8a4.5 4.5 0 0 1 .9-2.8 4.5 4.5 0 0 1-.9-2.8V-7A2.5 2.5 0 0 0 9-9.5h-1z"/>
  </g>
</svg>
